<?xml version="1.0" encoding="UTF-8" standalone="no"?>
<!-- Created with Inkscape (http://www.inkscape.org/) -->

<svg
   width="418.16199"
   height="237.35168"
   viewBox="0 0 418.16199 237.35168"
   version="1.1"
   id="svg5"
   inkscape:version="1.1.2 (b8e25be833, 2022-02-05)"
   sodipodi:docname="logo.svg"
   xmlns:inkscape="http://www.inkscape.org/namespaces/inkscape"
   xmlns:sodipodi="http://sodipodi.sourceforge.net/DTD/sodipodi-0.dtd"
   xmlns="http://www.w3.org/2000/svg"
   xmlns:svg="http://www.w3.org/2000/svg">
  <sodipodi:namedview
     id="namedview7"
     pagecolor="#505050"
     bordercolor="#eeeeee"
     borderopacity="1"
     inkscape:pageshadow="0"
     inkscape:pageopacity="0"
     inkscape:pagecheckerboard="0"
     inkscape:document-units="px"
     showgrid="false"
     inkscape:zoom="1.6074219"
     inkscape:cx="214.31834"
     inkscape:cy="135.6209"
     inkscape:window-width="1920"
     inkscape:window-height="1009"
     inkscape:window-x="-8"
     inkscape:window-y="-8"
     inkscape:window-maximized="1"
     inkscape:current-layer="layer3"
     fit-margin-top="5"
     lock-margins="true"
     fit-margin-left="5"
     fit-margin-right="5"
     fit-margin-bottom="5" />
  <defs
     id="defs2" />
  <g
     inkscape:groupmode="layer"
     id="layer4"
     inkscape:label="crown 1"
     transform="translate(-52.980323,-137.52354)">
    <path
       style="display:inline;fill:#aa8800;fill-opacity:1;stroke:#000000;stroke-width:1px;stroke-linecap:butt;stroke-linejoin:miter;stroke-opacity:1"
       d="m 72.165248,322.25516 -0.622114,-133.75456 91.761846,17.4192 95.18347,-50.08019 101.71568,50.08019 93.33398,-20.2815 v 136.36936 z"
       id="path15447" />
  </g>
  <g
     inkscape:label="crown"
     inkscape:groupmode="layer"
     id="layer1"
     transform="translate(-52.980323,-137.52354)">
    <g
       id="g7683"
       transform="matrix(2.4701909,0,0,2.4701909,57.980323,34.18781)"
       style="fill:#000000">
      <g
         id="g7629"
         style="fill:#000000">
        <path
           d="m 150.87963,131.21933 c 0,2.581 -2.09501,4.676 -4.676,4.676 H 18.149902 c -2.582001,0 -4.676,-2.095 -4.676,-4.676 0,-2.582 2.094,-4.677 4.676,-4.677 H 146.20363 c 2.58099,0 4.676,2.095 4.676,4.677 z M 165.235,61.668 V 117.7 c 0,2.582 -2.095,4.677 -4.676,4.677 H 4.676 C 2.094,122.377 0,120.282 0,117.7 V 61.668 c 0,-1.522 0.743,-2.953 1.982,-3.824 1.242,-0.871 2.837,-1.09 4.277,-0.572 l 34.942832,7.346484 37.479,-19.640257 c 2.34466,-1.489378 3.628936,-1.520859 5.943114,0.06296 L 123.32083,64.618484 158.976,57.272 c 1.449,-0.518 3.033,-0.299 4.275,0.572 1.248,0.871 1.984,2.302 1.984,3.824 z m -9.353,6.649 -32.45817,6.202484 c -1.74996,0.447395 -1.74221,0.403132 -3.14821,-0.387605 L 81.727581,54.888059 45.298371,73.459392 c -1.645428,0.902966 -1.645203,0.922715 -4.184539,0.615883 L 9.365,68.317 v 44.712 h 146.529 z"
           id="path7627"
           sodipodi:nodetypes="sssssssssssssccccccccscccccccccc"
           style="fill:#000000;fill-opacity:1;stroke-width:0.392682;stroke-miterlimit:4;stroke-dasharray:none" />
      </g>
      <g
         id="g7631"
         style="fill:#000000" />
      <g
         id="g7633"
         style="fill:#000000" />
      <g
         id="g7635"
         style="fill:#000000" />
      <g
         id="g7637"
         style="fill:#000000" />
      <g
         id="g7639"
         style="fill:#000000" />
      <g
         id="g7641"
         style="fill:#000000" />
      <g
         id="g7643"
         style="fill:#000000" />
      <g
         id="g7645"
         style="fill:#000000" />
      <g
         id="g7647"
         style="fill:#000000" />
      <g
         id="g7649"
         style="fill:#000000" />
      <g
         id="g7651"
         style="fill:#000000" />
      <g
         id="g7653"
         style="fill:#000000" />
      <g
         id="g7655"
         style="fill:#000000" />
      <g
         id="g7657"
         style="fill:#000000" />
      <g
         id="g7659"
         style="fill:#000000" />
    </g>
    <circle
       id="path10042"
       style="fill:#000000;stroke:#000000"
       cx="210.2746"
       cy="210.89671"
       r="0" />
    <circle
       id="path10044"
       style="fill:#000000;stroke:#000000"
       cx="210.2746"
       cy="210.89671"
       r="0" />
  </g>
  <g
     inkscape:groupmode="layer"
     id="layer2"
     inkscape:label="text"
     transform="translate(-52.980323,-137.52354)">
    <text
       xml:space="preserve"
       style="font-style:normal;font-variant:normal;font-weight:normal;font-stretch:normal;font-size:113.333px;line-height:1.25;font-family:Montserrat;-inkscape-font-specification:'Montserrat, @wght=800';font-variant-ligatures:normal;font-variant-caps:normal;font-variant-numeric:normal;font-variant-east-asian:normal;font-variation-settings:'wght' 800;letter-spacing:9px;fill:#000000;fill-opacity:1;stroke:none;stroke-width:0;stroke-miterlimit:4;stroke-dasharray:none"
       x="96.025627"
       y="304.91147"
       id="text3558"><tspan
         sodipodi:role="line"
         id="tspan3556"
         x="96.025627"
         y="304.91147"
         style="font-style:normal;font-variant:normal;font-weight:normal;font-stretch:normal;font-size:113.333px;font-family:Montserrat;-inkscape-font-specification:'Montserrat, @wght=800';font-variant-ligatures:normal;font-variant-caps:normal;font-variant-numeric:normal;font-variant-east-asian:normal;font-variation-settings:'wght' 800;fill:#000000;stroke:#000000;stroke-width:0;stroke-miterlimit:4;stroke-dasharray:none;stroke-opacity:1">GGVI</tspan></text>
  </g>
  <g
     inkscape:groupmode="layer"
     id="layer3"
     inkscape:label="fill"
     style="display:inline"
     transform="translate(-52.980323,-137.52354)">
    <path
       style="fill:#000000;fill-opacity:1;stroke:none;stroke-width:1px;stroke-linecap:butt;stroke-linejoin:miter;stroke-opacity:1"
       d="m 213.4836,204.10499 95.21705,0.22911 -48.939,-24.41451 z"
       id="path10788"
       sodipodi:nodetypes="cccc" />
    <path
       style="fill:#000000;fill-opacity:1;stroke:#000000;stroke-width:0;stroke-linecap:butt;stroke-linejoin:miter;stroke-miterlimit:4;stroke-dasharray:none;stroke-opacity:1"
       d="m 88.530111,237.44771 -0.147713,-25.97627 26.528442,4.35898 c -20.198385,5.26496 -26.380729,21.61729 -26.380729,21.61729 z"
       id="path25677"
       sodipodi:nodetypes="cccc" />
    <path
       style="display:inline;fill:#000000;fill-opacity:1;stroke:#000000;stroke-width:0;stroke-linecap:butt;stroke-linejoin:miter;stroke-miterlimit:4;stroke-dasharray:none;stroke-opacity:1"
       d="m 436.62857,236.85814 0.14772,-25.97627 -26.52845,4.35898 c 0,0 20.81731,3.51255 26.38073,21.61729 z"
       id="path25677-5"
       sodipodi:nodetypes="cccc" />
    <path
       style="fill:#aa8800;stroke:#000000;stroke-width:0.803291px;stroke-linecap:butt;stroke-linejoin:miter;stroke-opacity:1"
       d="m 100.47144,362.30058 322.25516,-0.40144 -2.79951,3.4122 -316.5006,0.80287 z"
       id="path33795"
       sodipodi:nodetypes="ccccc" />
  </g>
</svg>
