<?xml version="1.0" encoding="UTF-8"?>
<!-- Created with Inkscape (http://www.inkscape.org/) -->
<svg id="SVGRoot" width="979.9" height="824.69" version="1.1" viewBox="0 0 979.9 824.69" xmlns="http://www.w3.org/2000/svg">
 <g transform="translate(-297.62 -110.03)" fill-opacity=".3271">
  <path d="m744.17 234.36c43.239 34.687 12.537 220.08-39.346 187.8-40.553-25.226-63.227-45.64-63.227-45.64s-207.93-175.53-127.18 256.12c80.75 431.65 139.48-54.323 139.48-54.323s-64.6 20.555-79.282 4.4046c-14.682-16.15 4.4046-71.941 4.4046-71.941s160.03-51.386 183.52-8.8091c23.491 42.577-61.09 395.74-151.22 423.57-37.234 11.496-158.56 41.843-248.12-159.3-93.982-203.45-85.735-573.09 21.921-620.06 100.57-60.195 294.29 36.23 359.05 88.183z"/>
  <path d="m1234.2 234.36c43.239 34.687 12.537 220.08-39.346 187.8-40.553-25.226-63.227-45.64-63.227-45.64s-207.93-175.53-127.18 256.12c80.75 431.65 139.48-54.323 139.48-54.323s-64.6 20.555-79.282 4.4046c-14.682-16.15 4.4046-71.941 4.4046-71.941s160.03-51.386 183.52-8.8091c23.491 42.577-61.09 395.74-151.22 423.57-37.234 11.496-158.56 41.843-248.12-159.3-93.982-203.45-85.735-573.09 21.921-620.06 100.57-60.195 294.29 36.23 359.05 88.183z"/>
 </g>
 <g transform="translate(-297.62 -110.03)" fill="#fff" stroke="#000" stroke-linejoin="round">
  <path d="m764.17 218.36c43.239 34.687 12.537 220.08-39.346 187.8-40.553-25.226-63.227-45.64-63.227-45.64s-207.93-175.53-127.18 256.12c80.75 431.65 139.48-54.323 139.48-54.323s-64.6 20.555-79.282 4.4046c-14.682-16.15 4.4046-71.941 4.4046-71.941s160.03-51.386 183.52-8.8091c23.491 42.577-61.09 395.74-151.22 423.57-37.234 11.496-158.56 41.843-248.12-159.3-93.982-203.45-85.735-573.09 21.921-620.06 100.57-60.195 294.29 36.23 359.05 88.183z"/>
  <path d="m1254.2 218.36c43.239 34.687 10.197 223.56-39.346 187.8l-63.227-45.64s-207.93-175.53-127.18 256.12c80.75 431.65 139.48-54.323 139.48-54.323s-64.6 20.555-79.282 4.4046c-14.682-16.15 4.4046-71.941 4.4046-71.941s160.03-51.386 183.52-8.8091c23.491 42.577-61.09 395.74-151.22 423.57-37.234 11.496-158.56 41.843-248.12-159.3-93.982-203.45-85.735-573.09 21.921-620.06 100.57-60.195 294.29 36.23 359.05 88.183z"/>
 </g>
 <g transform="translate(-297.62 -110.03)" display="none">
  <path d="m845.67 189.4s93.052-23.466 140.57-29.089c51.843-6.1341 156.54-4.9313 156.54-4.9313l3.1361-117.94-88.091 33.034-79.423-59.492-67.395 74.174-105.71-25.693z" fill="#ebe06b" stroke="#000" stroke-width="1px"/>
 </g>
</svg>
